# Blender v2.93.4 OBJ File: 'SlimeEnvironment.blend'
# www.blender.org
mtllib SlimeEnvironment_Flag.mtl
o Cylinder.002_Cylinder
v 28.322449 16.675705 40.393688
v 28.322449 49.821793 40.393688
v 28.379818 16.675705 40.399342
v 28.379818 49.821793 40.399342
v 28.434984 16.675705 40.416073
v 28.434984 49.821793 40.416073
v 28.485825 16.675705 40.443249
v 28.485825 49.821793 40.443249
v 28.530388 16.675705 40.479820
v 28.530388 49.821793 40.479820
v 28.566959 16.675705 40.524384
v 28.566959 49.821793 40.524384
v 28.594133 16.675705 40.575222
v 28.594133 49.821793 40.575222
v 28.610868 16.675705 40.630390
v 28.610868 49.821793 40.630390
v 28.616518 16.675705 40.687759
v 28.616518 49.821793 40.687759
v 28.610868 16.675705 40.745129
v 28.610868 49.821793 40.745129
v 28.594133 16.675705 40.800297
v 28.594133 49.821793 40.800297
v 28.566959 16.675705 40.851135
v 28.566959 49.821793 40.851135
v 28.530388 16.675705 40.895699
v 28.530388 49.821793 40.895699
v 28.485825 16.675705 40.932270
v 28.485825 49.821793 40.932270
v 28.434984 16.675705 40.959446
v 28.434984 49.821793 40.959446
v 28.379818 16.675705 40.976177
v 28.379818 49.821793 40.976177
v 28.322449 16.675705 40.981831
v 28.322449 49.821793 40.981831
v 28.265079 16.675705 40.976177
v 28.265079 49.821793 40.976177
v 28.209913 16.675705 40.959446
v 28.209913 49.821793 40.959446
v 28.159073 16.675705 40.932270
v 28.159073 49.821793 40.932270
v 28.114510 16.675705 40.895699
v 28.114510 49.821793 40.895699
v 28.077938 16.675705 40.851135
v 28.077938 49.821793 40.851135
v 28.050764 16.675705 40.800297
v 28.050764 49.821793 40.800297
v 28.034029 16.675705 40.745129
v 28.034029 49.821793 40.745129
v 28.028379 16.675705 40.687759
v 28.028379 49.821793 40.687759
v 28.034029 16.675705 40.630390
v 28.034029 49.821793 40.630390
v 28.050764 16.675705 40.575222
v 28.050764 49.821793 40.575222
v 28.077938 16.675705 40.524384
v 28.077938 49.821793 40.524384
v 28.114510 16.675705 40.479820
v 28.114510 49.821793 40.479820
v 28.159073 16.675705 40.443249
v 28.159073 49.821793 40.443249
v 28.209913 16.675705 40.416073
v 28.209913 49.821793 40.416073
v 28.265079 16.675705 40.399342
v 28.265079 49.821793 40.399342
v 28.485825 16.675705 40.443249
v 28.485825 49.821793 40.443249
v 28.322449 35.115597 40.393688
v 28.322449 46.164291 40.393688
v 28.379818 46.164291 40.399342
v 28.379818 35.115597 40.399342
v 28.434984 46.164291 40.416073
v 28.434984 35.115597 40.416073
v 28.530388 46.164291 40.479820
v 28.530388 35.115597 40.479820
v 28.566959 46.164291 40.524384
v 28.566959 35.115597 40.524384
v 28.594133 46.164291 40.575222
v 28.594133 35.115597 40.575222
v 28.610868 46.164291 40.630390
v 28.610868 35.115597 40.630390
v 28.616518 46.164291 40.687759
v 28.616518 35.115597 40.687759
v 28.610868 46.164291 40.745129
v 28.610868 35.115597 40.745129
v 28.594133 46.164291 40.800297
v 28.594133 35.115597 40.800297
v 28.566959 46.164291 40.851135
v 28.566959 35.115597 40.851135
v 28.530388 46.164291 40.895699
v 28.530388 35.115597 40.895699
v 28.485825 46.164291 40.932270
v 28.485825 35.115597 40.932270
v 28.434984 46.164291 40.959446
v 28.434984 35.115597 40.959446
v 28.379818 46.164291 40.976177
v 28.379818 35.115597 40.976177
v 28.322449 46.164291 40.981831
v 28.322449 35.115597 40.981831
v 28.265079 46.164291 40.976177
v 28.265079 35.115597 40.976177
v 28.209913 46.164291 40.959446
v 28.209913 35.115597 40.959446
v 28.159073 46.164291 40.932270
v 28.159073 35.115597 40.932270
v 28.114510 46.164291 40.895699
v 28.114510 35.115597 40.895699
v 28.077938 46.164291 40.851135
v 28.077938 35.115597 40.851135
v 28.050764 46.164291 40.800297
v 28.050764 35.115597 40.800297
v 28.034029 46.164291 40.745129
v 28.034029 35.115597 40.745129
v 28.028379 46.164291 40.687759
v 28.028379 35.115597 40.687759
v 28.034029 46.164291 40.630390
v 28.034029 35.115597 40.630390
v 28.050764 46.164291 40.575222
v 28.050764 35.115597 40.575222
v 28.077938 46.164291 40.524384
v 28.077938 35.115597 40.524384
v 28.114510 46.164291 40.479820
v 28.114510 35.115597 40.479820
v 28.159073 46.164291 40.443249
v 28.159073 35.115597 40.443249
v 28.209913 46.164291 40.416073
v 28.209913 35.115597 40.416073
v 28.265079 46.164291 40.399342
v 28.265079 35.115597 40.399342
v 28.530388 49.821793 40.479820
v 28.530388 46.164291 40.479820
v 32.429905 49.544884 35.973103
v 32.429905 45.887386 35.973103
v 31.605644 45.940857 36.659657
v 30.843401 45.996239 37.606537
v 29.960302 46.051620 38.403248
v 29.318914 46.107002 39.500290
v 29.318914 49.764503 39.500290
v 29.960302 49.709122 38.403248
v 30.843401 49.653740 37.606537
v 31.605644 49.598358 36.659657
vt 0.732389 0.584890
vt 0.717477 0.558563
vt 0.732389 0.558563
vt 0.717477 0.584890
vt 0.702565 0.558563
vt 0.702565 0.479033
vt 0.687654 0.584890
vt 0.672742 0.558563
vt 0.672742 0.479033
vt 0.672742 0.584890
vt 0.657830 0.558563
vt 0.657830 0.584890
vt 0.642918 0.558563
vt 0.642918 0.584890
vt 0.628006 0.558563
vt 0.628006 0.584890
vt 0.613094 0.558563
vt 0.613094 0.584890
vt 0.598182 0.558563
vt 0.598182 0.584890
vt 0.583270 0.558563
vt 0.583270 0.584890
vt 0.568359 0.558563
vt 0.568359 0.584890
vt 0.553447 0.558563
vt 0.553447 0.584890
vt 0.538535 0.558563
vt 0.538535 0.584890
vt 0.523623 0.558563
vt 0.523623 0.584890
vt 0.508711 0.558563
vt 0.508711 0.584890
vt 0.493799 0.558563
vt 0.493799 0.584890
vt 0.478887 0.558563
vt 0.478887 0.584890
vt 0.463975 0.558563
vt 0.463975 0.584890
vt 0.449064 0.558563
vt 0.449064 0.584890
vt 0.434152 0.558563
vt 0.434152 0.584890
vt 0.419240 0.558563
vt 0.419240 0.584890
vt 0.404328 0.558563
vt 0.404328 0.584890
vt 0.389416 0.558563
vt 0.389416 0.584890
vt 0.374504 0.558563
vt 0.374504 0.584890
vt 0.359592 0.558563
vt 0.359592 0.584890
vt 0.344681 0.558563
vt 0.344681 0.584890
vt 0.329769 0.558563
vt 0.329769 0.584890
vt 0.314857 0.558563
vt 0.314857 0.584890
vt 0.299945 0.558563
vt 0.299945 0.584890
vt 0.285033 0.558563
vt 0.028269 0.341844
vt 0.158156 0.028269
vt 0.471731 0.158156
vt 0.285033 0.584890
vt 0.270121 0.558563
vt 0.270121 0.584890
vt 0.255209 0.558563
vt 0.985388 0.296822
vt 0.796822 0.014612
vt 0.514612 0.203178
vt 0.687654 0.346300
vt 0.687654 0.584890
vt 0.270121 0.479033
vt 0.255209 0.346300
vt 0.270121 0.346300
vt 0.255209 0.479033
vt 0.285033 0.479033
vt 0.285033 0.346300
vt 0.299945 0.479033
vt 0.299945 0.346300
vt 0.314857 0.479033
vt 0.314857 0.346300
vt 0.329769 0.479033
vt 0.329769 0.346300
vt 0.344681 0.479033
vt 0.344681 0.346300
vt 0.359592 0.479033
vt 0.359592 0.346300
vt 0.374504 0.479033
vt 0.374504 0.346300
vt 0.389416 0.479033
vt 0.389416 0.346300
vt 0.404328 0.479033
vt 0.404328 0.346300
vt 0.419240 0.479033
vt 0.419240 0.346300
vt 0.434152 0.479033
vt 0.434152 0.346300
vt 0.449064 0.479033
vt 0.449064 0.346300
vt 0.463975 0.479033
vt 0.463975 0.346300
vt 0.478887 0.479033
vt 0.478887 0.346300
vt 0.493799 0.479033
vt 0.493799 0.346300
vt 0.508711 0.479033
vt 0.508711 0.346300
vt 0.523623 0.479033
vt 0.523623 0.346300
vt 0.538535 0.479033
vt 0.538535 0.346300
vt 0.553447 0.479033
vt 0.553447 0.346300
vt 0.568359 0.479033
vt 0.568359 0.346300
vt 0.583270 0.479033
vt 0.583270 0.346300
vt 0.598182 0.479033
vt 0.598182 0.346300
vt 0.613094 0.479033
vt 0.613094 0.346300
vt 0.628006 0.479033
vt 0.628006 0.346300
vt 0.642918 0.479033
vt 0.642918 0.346300
vt 0.657830 0.479033
vt 0.657830 0.346300
vt 0.672742 0.346300
vt 0.717477 0.479033
vt 0.702565 0.346300
vt 0.717477 0.346300
vt 0.732389 0.479033
vt 0.732389 0.346300
vt 0.672742 0.584890
vt 0.672742 0.558563
vt 0.781574 0.793988
vt 0.734311 0.862455
vt 0.734311 0.793988
vt 0.711424 0.807278
vt 0.669569 0.862450
vt 0.669569 0.807278
vt 0.431090 0.892033
vt 0.431090 0.932948
vt 0.452077 0.891120
vt 0.784093 0.800296
vt 0.770141 0.855468
vt 0.746888 0.798745
vt 0.314453 0.933109
vt 0.363281 0.988281
vt 0.363281 0.933109
vt 0.702565 0.584890
vt 0.687654 0.346300
vt 0.341844 0.471731
vt 0.396847 0.339328
vt 0.158156 0.471731
vt 0.374504 0.341528
vt 0.352162 0.339328
vt 0.116663 0.449553
vt 0.080294 0.419706
vt 0.050447 0.383337
vt 0.014612 0.296822
vt 0.010000 0.250000
vt 0.014612 0.203178
vt 0.028269 0.158156
vt 0.050447 0.116663
vt 0.080294 0.080294
vt 0.116663 0.050447
vt 0.203178 0.014612
vt 0.250000 0.010000
vt 0.296822 0.014612
vt 0.341844 0.028269
vt 0.383337 0.050447
vt 0.419706 0.080294
vt 0.449553 0.116663
vt 0.485388 0.203178
vt 0.490000 0.250000
vt 0.485388 0.296822
vt 0.471731 0.341844
vt 0.449553 0.383337
vt 0.419706 0.419706
vt 0.383337 0.449553
vt 0.255209 0.584890
vt 0.590752 0.339328
vt 0.613094 0.341528
vt 0.635437 0.339328
vt 0.841844 0.471731
vt 0.883337 0.449553
vt 0.919706 0.419706
vt 0.949553 0.383337
vt 0.971731 0.341844
vt 0.990000 0.250000
vt 0.985388 0.203178
vt 0.971731 0.158156
vt 0.949553 0.116663
vt 0.919706 0.080294
vt 0.883337 0.050447
vt 0.841844 0.028269
vt 0.750000 0.010000
vt 0.703178 0.014612
vt 0.658156 0.028269
vt 0.616663 0.050447
vt 0.580294 0.080294
vt 0.550447 0.116663
vt 0.528269 0.158156
vt 0.510000 0.250000
vt 0.514612 0.296822
vt 0.528269 0.341844
vt 0.550447 0.383337
vt 0.580294 0.419706
vt 0.616663 0.449553
vt 0.658156 0.471731
vt 0.780362 0.862455
vt 0.708323 0.860900
vt 0.408279 0.928386
vt 0.794944 0.857018
vt 0.315430 0.988281
vn 0.0981 0.0000 -0.9952
vn 0.2903 0.0000 -0.9569
vn 0.4714 0.0000 -0.8819
vn 0.6344 0.0000 -0.7730
vn 0.7730 0.0000 -0.6344
vn 0.8819 0.0000 -0.4714
vn 0.9569 0.0000 -0.2903
vn 0.9952 0.0000 -0.0980
vn 0.9952 0.0000 0.0980
vn 0.9569 0.0000 0.2903
vn 0.8819 0.0000 0.4715
vn 0.7730 0.0000 0.6344
vn 0.6345 0.0000 0.7729
vn 0.4714 0.0000 0.8819
vn 0.2903 0.0000 0.9569
vn 0.0980 0.0000 0.9952
vn -0.0981 0.0000 0.9952
vn -0.2902 0.0000 0.9570
vn -0.4714 0.0000 0.8819
vn -0.6343 0.0000 0.7731
vn -0.7730 0.0000 0.6344
vn -0.8819 0.0000 0.4714
vn -0.9569 0.0000 0.2903
vn -0.9952 0.0000 0.0980
vn -0.9952 0.0000 -0.0980
vn -0.9569 0.0000 -0.2903
vn -0.8819 0.0000 -0.4714
vn -0.7730 0.0000 -0.6344
vn -0.6345 0.0000 -0.7729
vn -0.4714 0.0000 -0.8819
vn 0.0000 1.0000 0.0000
vn -0.2902 0.0000 -0.9570
vn -0.0980 0.0000 -0.9952
vn 0.0000 -1.0000 0.0000
vn 0.0000 0.0000 1.0000
vn -0.0981 0.0000 -0.9952
vn -0.2903 0.0000 -0.9569
vn -0.6344 0.0000 -0.7730
vn -0.6344 0.0000 0.7730
vn -0.4715 0.0000 0.8819
vn -0.2903 0.0000 0.9569
vn 0.0981 0.0000 0.9952
vn 0.2902 0.0000 0.9570
vn 0.4715 0.0000 0.8819
vn 0.6344 0.0000 0.7730
vn 0.8819 0.0000 0.4714
vn -0.6400 0.0000 -0.7684
vn -0.7790 0.0000 -0.6271
vn -0.8633 0.0000 -0.5047
vn -0.6699 0.0000 -0.7425
vn 0.0980 0.0000 -0.9952
vn 0.2902 0.0000 -0.9570
vn 0.4715 0.0000 -0.8819
vn 0.6343 0.0000 -0.7731
vn 0.6345 0.0000 -0.7729
vn 0.6343 0.0000 0.7731
vn -0.0980 0.0000 0.9952
vn -0.6345 0.0000 0.7729
vn -0.8819 0.0000 0.4715
vn -0.6343 0.0000 -0.7731
vn 0.0000 1.0000 0.0005
vn 0.0000 1.0000 0.0007
vn 0.0000 1.0000 -0.0007
vn 0.0000 1.0000 0.0001
vn 0.0000 1.0000 -0.0002
vn 0.0000 1.0000 -0.0001
vn 0.0000 1.0000 0.0002
vn 0.0000 -1.0000 0.0001
usemtl Material.010
s off
f 2/1/1 69/2/1 68/3/1
f 4/4/2 71/5/2 69/2/2
f 72/6/3 71/5/3 8/7/3
f 8/7/4 73/8/4 74/9/4
f 10/10/5 75/11/5 73/8/5
f 12/12/6 77/13/6 75/11/6
f 14/14/7 79/15/7 77/13/7
f 16/16/8 81/17/8 79/15/8
f 18/18/9 83/19/9 81/17/9
f 20/20/10 85/21/10 83/19/10
f 22/22/11 87/23/11 85/21/11
f 24/24/12 89/25/12 87/23/12
f 26/26/13 91/27/13 89/25/13
f 28/28/14 93/29/14 91/27/14
f 30/30/15 95/31/15 93/29/15
f 32/32/16 97/33/16 95/31/16
f 34/34/17 99/35/17 97/33/17
f 36/36/18 101/37/18 99/35/18
f 38/38/19 103/39/19 101/37/19
f 40/40/20 105/41/20 103/39/20
f 42/42/21 107/43/21 105/41/21
f 44/44/22 109/45/22 107/43/22
f 46/46/23 111/47/23 109/45/23
f 48/48/24 113/49/24 111/47/24
f 50/50/25 115/51/25 113/49/25
f 52/52/26 117/53/26 115/51/26
f 54/54/27 119/55/27 117/53/27
f 56/56/28 121/57/28 119/55/28
f 58/58/29 123/59/29 121/57/29
f 60/60/30 125/61/30 123/59/30
f 54/62/31 38/63/31 22/64/31
f 62/65/32 127/66/32 125/61/32
f 64/67/33 68/68/33 127/66/33
f 15/69/34 31/70/34 47/71/34
f 8/7/35 65/72/35 66/73/35
f 128/74/36 1/75/36 63/76/36
f 127/66/33 67/77/33 128/74/33
f 126/78/32 63/76/32 61/79/32
f 125/61/37 128/74/37 126/78/37
f 124/80/30 61/79/30 59/81/30
f 123/59/30 126/78/30 124/80/30
f 122/82/38 59/81/38 57/83/38
f 121/57/38 124/80/38 122/82/38
f 120/84/28 57/83/28 55/85/28
f 119/55/28 122/82/28 120/84/28
f 118/86/27 55/85/27 53/87/27
f 117/53/27 120/84/27 118/86/27
f 116/88/26 53/87/26 51/89/26
f 115/51/26 118/86/26 116/88/26
f 114/90/25 51/89/25 49/91/25
f 113/49/25 116/88/25 114/90/25
f 112/92/24 49/91/24 47/93/24
f 111/47/24 114/90/24 112/92/24
f 110/94/23 47/93/23 45/95/23
f 109/45/23 112/92/23 110/94/23
f 108/96/22 45/95/22 43/97/22
f 107/43/22 110/94/22 108/96/22
f 106/98/21 43/97/21 41/99/21
f 105/41/21 108/96/21 106/98/21
f 104/100/39 41/99/39 39/101/39
f 103/39/20 106/98/20 104/100/20
f 102/102/40 39/101/40 37/103/40
f 101/37/19 104/100/19 102/102/19
f 100/104/18 37/103/18 35/105/18
f 99/35/41 102/102/41 100/104/41
f 98/106/17 35/105/17 33/107/17
f 97/33/17 100/104/17 98/106/17
f 96/108/42 33/107/42 31/109/42
f 95/31/16 98/106/16 96/108/16
f 94/110/43 31/109/43 29/111/43
f 93/29/15 96/108/15 94/110/15
f 92/112/14 29/111/14 27/113/14
f 91/27/44 94/110/44 92/112/44
f 90/114/45 27/113/45 25/115/45
f 89/25/45 92/112/45 90/114/45
f 88/116/12 25/115/12 23/117/12
f 87/23/12 90/114/12 88/116/12
f 86/118/46 23/117/46 21/119/46
f 85/21/46 88/116/46 86/118/46
f 84/120/10 21/119/10 19/121/10
f 83/19/10 86/118/10 84/120/10
f 82/122/9 19/121/9 17/123/9
f 81/17/9 84/120/9 82/122/9
f 80/124/8 17/123/8 15/125/8
f 79/15/8 82/122/8 80/124/8
f 78/126/7 15/125/7 13/127/7
f 77/13/7 80/124/7 78/126/7
f 76/128/6 13/127/6 11/129/6
f 75/11/6 78/126/6 76/128/6
f 74/9/5 11/129/5 9/130/5
f 73/8/5 76/128/5 74/9/5
f 70/131/2 5/132/2 3/133/2
f 69/2/2 72/6/2 70/131/2
f 67/134/1 3/133/1 1/135/1
f 68/3/1 70/131/1 67/134/1
f 73/8/35 129/136/35 130/137/35
f 133/138/47 131/139/47 132/140/47
f 130/141/48 137/142/48 136/143/48
f 136/144/49 138/145/49 135/146/49
f 135/147/50 139/148/50 134/149/50
f 134/150/48 140/151/48 133/152/48
f 2/1/51 4/4/51 69/2/51
f 4/4/52 6/153/52 71/5/52
f 7/154/3 5/132/3 72/6/3
f 71/5/3 6/153/3 8/7/3
f 7/154/53 72/6/53 8/7/53
f 9/130/4 7/154/4 74/9/4
f 7/154/54 8/7/54 74/9/54
f 8/7/55 10/10/55 73/8/55
f 10/10/5 12/12/5 75/11/5
f 12/12/6 14/14/6 77/13/6
f 14/14/7 16/16/7 79/15/7
f 16/16/8 18/18/8 81/17/8
f 18/18/9 20/20/9 83/19/9
f 20/20/10 22/22/10 85/21/10
f 22/22/46 24/24/46 87/23/46
f 24/24/12 26/26/12 89/25/12
f 26/26/56 28/28/56 91/27/56
f 28/28/14 30/30/14 93/29/14
f 30/30/43 32/32/43 95/31/43
f 32/32/42 34/34/42 97/33/42
f 34/34/57 36/36/57 99/35/57
f 36/36/41 38/38/41 101/37/41
f 38/38/19 40/40/19 103/39/19
f 40/40/58 42/42/58 105/41/58
f 42/42/21 44/44/21 107/43/21
f 44/44/59 46/46/59 109/45/59
f 46/46/23 48/48/23 111/47/23
f 48/48/24 50/50/24 113/49/24
f 50/50/25 52/52/25 115/51/25
f 52/52/26 54/54/26 117/53/26
f 54/54/27 56/56/27 119/55/27
f 56/56/28 58/58/28 121/57/28
f 58/58/60 60/60/60 123/59/60
f 60/60/30 62/65/30 125/61/30
f 6/155/61 4/156/61 62/157/61
f 4/156/31 2/158/31 62/157/31
f 2/158/62 64/159/62 62/157/62
f 62/157/31 60/160/31 58/161/31
f 58/161/31 56/162/31 62/157/31
f 56/162/31 54/62/31 62/157/31
f 54/62/31 52/163/31 50/164/31
f 50/164/31 48/165/31 46/166/31
f 46/166/31 44/167/31 42/168/31
f 42/168/31 40/169/31 38/63/31
f 38/63/63 36/170/63 34/171/63
f 34/171/63 32/172/63 30/173/63
f 30/173/31 28/174/31 26/175/31
f 26/175/31 24/176/31 22/64/31
f 22/64/31 20/177/31 18/178/31
f 18/178/31 16/179/31 14/180/31
f 14/180/31 12/181/31 10/182/31
f 10/182/31 8/183/31 6/155/31
f 54/62/31 50/164/31 38/63/31
f 50/164/64 46/166/64 38/63/64
f 46/166/65 42/168/65 38/63/65
f 38/63/31 34/171/31 30/173/31
f 30/173/64 26/175/64 38/63/64
f 26/175/31 22/64/31 38/63/31
f 22/64/31 18/178/31 6/155/31
f 18/178/66 14/180/66 6/155/66
f 14/180/67 10/182/67 6/155/67
f 6/155/66 62/157/66 54/62/66
f 6/155/31 54/62/31 22/64/31
f 62/65/37 64/67/37 127/66/37
f 64/67/36 2/184/36 68/68/36
f 63/185/34 1/186/34 3/187/34
f 3/187/34 5/188/34 7/189/34
f 7/189/34 9/190/34 11/191/34
f 11/191/34 13/192/34 15/69/34
f 15/69/34 17/193/34 19/194/34
f 19/194/34 21/195/34 23/196/34
f 23/196/34 25/197/34 27/198/34
f 27/198/34 29/199/34 31/70/34
f 31/70/34 33/200/34 35/201/34
f 35/201/34 37/202/34 39/203/34
f 39/203/34 41/204/34 43/205/34
f 43/205/34 45/206/34 47/71/34
f 47/71/34 49/207/34 51/208/34
f 51/208/34 53/209/34 47/71/34
f 53/209/34 55/210/34 47/71/34
f 55/210/34 57/211/34 59/212/34
f 59/212/34 61/213/34 55/210/34
f 61/213/68 63/185/68 55/210/68
f 63/185/34 3/187/34 15/69/34
f 3/187/34 7/189/34 15/69/34
f 7/189/34 11/191/34 15/69/34
f 15/69/34 19/194/34 23/196/34
f 23/196/34 27/198/34 15/69/34
f 27/198/34 31/70/34 15/69/34
f 31/70/34 35/201/34 47/71/34
f 35/201/34 39/203/34 47/71/34
f 39/203/34 43/205/34 47/71/34
f 47/71/34 55/210/34 63/185/34
f 63/185/34 15/69/34 47/71/34
f 8/7/35 7/154/35 65/72/35
f 128/74/36 67/77/36 1/75/36
f 127/66/36 68/68/36 67/77/36
f 126/78/37 128/74/37 63/76/37
f 125/61/37 127/66/37 128/74/37
f 124/80/30 126/78/30 61/79/30
f 123/59/30 125/61/30 126/78/30
f 122/82/38 124/80/38 59/81/38
f 121/57/38 123/59/38 124/80/38
f 120/84/28 122/82/28 57/83/28
f 119/55/28 121/57/28 122/82/28
f 118/86/27 120/84/27 55/85/27
f 117/53/27 119/55/27 120/84/27
f 116/88/26 118/86/26 53/87/26
f 115/51/26 117/53/26 118/86/26
f 114/90/25 116/88/25 51/89/25
f 113/49/25 115/51/25 116/88/25
f 112/92/24 114/90/24 49/91/24
f 111/47/24 113/49/24 114/90/24
f 110/94/23 112/92/23 47/93/23
f 109/45/23 111/47/23 112/92/23
f 108/96/22 110/94/22 45/95/22
f 107/43/22 109/45/22 110/94/22
f 106/98/21 108/96/21 43/97/21
f 105/41/21 107/43/21 108/96/21
f 104/100/39 106/98/39 41/99/39
f 103/39/39 105/41/39 106/98/39
f 102/102/19 104/100/19 39/101/19
f 101/37/40 103/39/40 104/100/40
f 100/104/18 102/102/18 37/103/18
f 99/35/41 101/37/41 102/102/41
f 98/106/17 100/104/17 35/105/17
f 97/33/57 99/35/57 100/104/57
f 96/108/42 98/106/42 33/107/42
f 95/31/42 97/33/42 98/106/42
f 94/110/43 96/108/43 31/109/43
f 93/29/15 95/31/15 96/108/15
f 92/112/44 94/110/44 29/111/44
f 91/27/14 93/29/14 94/110/14
f 90/114/45 92/112/45 27/113/45
f 89/25/56 91/27/56 92/112/56
f 88/116/12 90/114/12 25/115/12
f 87/23/12 89/25/12 90/114/12
f 86/118/46 88/116/46 23/117/46
f 85/21/46 87/23/46 88/116/46
f 84/120/10 86/118/10 21/119/10
f 83/19/10 85/21/10 86/118/10
f 82/122/9 84/120/9 19/121/9
f 81/17/9 83/19/9 84/120/9
f 80/124/8 82/122/8 17/123/8
f 79/15/8 81/17/8 82/122/8
f 78/126/7 80/124/7 15/125/7
f 77/13/7 79/15/7 80/124/7
f 76/128/6 78/126/6 13/127/6
f 75/11/6 77/13/6 78/126/6
f 74/9/5 76/128/5 11/129/5
f 73/8/5 75/11/5 76/128/5
f 70/131/52 72/6/52 5/132/52
f 69/2/2 71/5/2 72/6/2
f 67/134/1 70/131/1 3/133/1
f 68/3/51 69/2/51 70/131/51
f 73/8/35 10/10/35 129/136/35
f 133/138/47 140/214/47 131/139/47
f 130/141/48 129/215/48 137/142/48
f 136/144/49 137/216/49 138/145/49
f 135/147/50 138/217/50 139/148/50
f 134/150/48 139/218/48 140/151/48
