# Blender v2.93.4 OBJ File: 'SlimeEnvironment.blend'
# www.blender.org
mtllib DoubleRock.mtl
o Icosphere.001
v -180.303421 22.105705 112.697617
v -178.512070 22.175177 113.739754
v -180.740982 22.175177 114.723328
v -177.860611 22.394716 114.035011
v -176.970886 22.326572 112.358238
v -182.365204 22.175179 112.907433
v -181.140076 22.175177 110.801582
v -178.758713 22.175177 111.316002
v -177.249298 22.583195 113.191658
v -180.964722 22.391129 115.415031
v -178.949646 22.326319 115.765480
v -180.046082 22.556158 115.493378
v -183.811157 22.362844 113.054573
v -182.786865 22.327915 114.914436
v -183.830139 22.569632 114.244774
v -181.726822 22.362843 109.471863
v -183.201889 22.326319 111.011383
v -182.931442 22.570877 109.759407
v -177.675400 22.362843 110.347061
v -179.595367 22.326319 109.419945
v -178.321121 22.570875 109.290253
v -178.287766 22.571196 114.690918
v -181.986816 22.558437 115.305191
v -184.156586 22.570877 111.865295
v -180.702499 22.570877 108.775841
v -176.696899 22.570875 111.106186
v -179.145325 22.721039 114.747589
v -177.936752 22.771597 113.795227
v -179.699905 22.865385 113.773766
v -182.463669 22.728662 114.459061
v -180.896561 22.738930 114.836182
v -181.404434 22.840511 113.416046
v -183.351059 22.778910 110.924622
v -183.379913 22.795389 112.975967
v -181.672089 22.875492 111.736900
v -179.558960 22.778910 109.251259
v -181.657196 22.815434 109.629761
v -179.874924 22.861410 110.961632
v -177.483536 22.741058 112.212891
v -177.804031 22.815434 110.462097
v -178.390549 22.927639 112.410454
v -180.176773 22.902908 112.417290
vt 0.181819 0.000000
vt 0.227273 0.078731
vt 0.136365 0.078731
vt 0.272728 0.157461
vt 0.318182 0.078731
vt 0.363637 0.157461
vt 0.909091 0.000000
vt 0.954545 0.078731
vt 0.863636 0.078731
vt 0.727273 0.000000
vt 0.772727 0.078731
vt 0.681818 0.078731
vt 0.545455 0.000000
vt 0.590909 0.078731
vt 0.500000 0.078731
vt 0.318182 0.236191
vt 0.090910 0.157461
vt 0.181819 0.157461
vt 0.136365 0.236191
vt 0.818182 0.157461
vt 0.909091 0.157461
vt 0.863636 0.236191
vt 0.636364 0.157461
vt 0.727273 0.157461
vt 0.681818 0.236191
vt 0.454546 0.157461
vt 0.545455 0.157461
vt 0.500000 0.236191
vt 0.227273 0.236191
vt 0.045455 0.236191
vt 0.772727 0.236191
vt 0.590909 0.236191
vt 0.409092 0.236191
vt 0.181819 0.314921
vt 0.272728 0.314921
vt 0.227273 0.393651
vt 0.000000 0.314921
vt 0.090910 0.314921
vt 0.045455 0.393651
vt 0.727273 0.314921
vt 0.818182 0.314921
vt 0.772727 0.393651
vt 0.545455 0.314921
vt 0.636364 0.314921
vt 0.590909 0.393651
vt 0.363637 0.314921
vt 0.454546 0.314921
vt 0.409092 0.393651
vt 0.500000 0.393651
vt 0.454546 0.472382
vt 0.681818 0.393651
vt 0.636364 0.472382
vt 0.863636 0.393651
vt 0.818182 0.472382
vt 0.909091 0.314921
vt 0.136365 0.393651
vt 0.090910 0.472382
vt 0.318182 0.393651
vt 0.272728 0.472382
vt 0.954545 0.236191
vt 1.000000 0.157461
vt 0.409092 0.078731
vt 0.363637 0.000000
vn 0.0167 -0.9991 0.0379
vn 0.2452 -0.9547 0.1689
vn -0.0309 -0.9991 0.0276
vn -0.0358 -0.9991 -0.0208
vn 0.0087 -0.9991 -0.0405
vn 0.7343 -0.5399 0.4116
vn -0.1464 0.3818 0.9126
vn -0.3177 -0.9350 0.1574
vn -0.2191 -0.9476 -0.2324
vn 0.1533 -0.9476 -0.2802
vn 0.8164 -0.1222 0.5645
vn -0.0962 0.0642 0.9933
vn -0.7472 -0.6567 0.1022
vn -0.2752 -0.7316 -0.6237
vn 0.5081 -0.7316 -0.4545
vn 0.0513 0.9917 0.1178
vn -0.0259 0.9964 0.0805
vn -0.0532 0.9985 -0.0088
vn 0.0141 0.9989 -0.0451
vn 0.0090 0.9989 -0.0465
vn 0.0100 0.9989 -0.0463
vn 0.2024 0.9793 0.0045
vn -0.0140 0.9994 -0.0314
vn 0.0089 0.9985 -0.0548
vn 0.0110 0.9989 -0.0461
vn -0.0047 0.9996 -0.0290
vn -0.0056 0.9995 -0.0310
vn -0.0049 0.9996 -0.0295
vn -0.0045 0.9996 -0.0285
vn -0.0435 0.9986 -0.0288
vn -0.0322 0.9991 0.0261
vn -0.0323 0.9991 0.0261
vn -0.0300 0.9992 0.0256
vn -0.0285 0.9993 0.0254
vn -0.0380 0.9969 0.0683
vn -0.0220 0.9991 0.0354
vn -0.0319 0.9961 0.0826
vn 0.0171 0.9904 0.1371
vn -0.0137 0.9994 0.0325
vn 0.0517 0.9941 0.0951
vn 0.2099 0.9768 0.0413
vn 0.2145 0.9767 0.0022
vn 0.3918 0.8507 -0.3504
vn 0.1678 0.9476 -0.2718
vn -0.0407 0.9476 -0.3169
vn -0.2122 0.8507 -0.4809
vn -0.2066 0.9476 -0.2436
vn -0.2625 0.9649 -0.0114
vn -0.3388 0.9397 0.0470
vn -0.1343 0.9827 0.1272
vn -0.0618 0.9712 0.2302
vn -0.0281 0.9531 0.3014
vn 0.0221 0.9702 0.2412
vn 0.1832 0.9416 0.2825
vn 0.5392 0.7518 0.3795
vn 0.3240 0.9431 0.0746
vn 0.1439 0.7316 -0.6664
vn 0.1110 -0.8507 -0.5138
vn -0.0240 -0.9476 -0.3185
vn -0.5893 0.7316 -0.3428
vn -0.4543 -0.8507 -0.2643
vn -0.3104 -0.9476 -0.0756
vn -0.1539 0.9483 0.2775
vn -0.4819 0.2481 0.8403
vn -0.1844 -0.6335 0.7514
vn 0.1831 0.8899 0.4179
vn 0.1258 0.9477 0.2935
vn 0.8438 0.0600 0.5334
vn 0.3138 0.9463 0.0775
vn 0.9441 0.2162 0.2488
vn 0.2949 -0.9479 -0.1204
vn 0.0724 -0.9912 -0.1110
vn 0.0190 -0.9960 -0.0878
vn -0.0202 -0.9912 -0.1310
vn -0.0832 -0.9912 -0.1032
vn -0.0776 -0.9960 -0.0451
vn -0.1308 -0.9912 -0.0213
vn -0.1236 -0.9911 0.0495
vn -0.0686 -0.9958 0.0614
vn -0.0449 -0.9576 0.2844
vn 0.1186 -0.9912 -0.0594
vn 0.0897 -0.9959 -0.0091
vn 0.0412 -0.9991 -0.0042
vn -0.0785 -0.9586 0.2739
vn 0.0362 -0.9960 0.0821
vn 0.2640 -0.9560 0.1283
usemtl Material.007
s 1
f 1/1/1 2/2/1 3/3/1
f 4/4/2 2/5/2 5/6/2
f 1/7/3 3/8/3 6/9/3
f 1/10/4 6/11/4 7/12/4
f 1/13/5 7/14/5 8/15/5
f 4/4/6 5/6/6 9/16/6
f 10/17/7 11/18/7 12/19/7
f 13/20/8 14/21/8 15/22/8
f 16/23/9 17/24/9 18/25/9
f 19/26/10 20/27/10 21/28/10
f 4/4/11 9/16/11 22/29/11
f 10/17/12 12/19/12 23/30/12
f 13/20/13 15/22/13 24/31/13
f 16/23/14 18/25/14 25/32/14
f 19/26/15 21/28/15 26/33/15
f 27/34/16 28/35/16 29/36/16
f 30/37/17 31/38/17 32/39/17
f 33/40/18 34/41/18 35/42/18
f 36/43/19 37/44/20 38/45/21
f 39/46/22 40/47/22 41/48/22
f 41/48/23 38/49/23 42/50/23
f 41/48/24 40/47/24 38/49/24
f 40/47/25 36/43/19 38/49/21
f 38/45/26 35/51/27 42/52/28
f 38/45/26 37/44/29 35/51/27
f 37/44/30 33/40/30 35/51/30
f 35/42/31 32/53/32 42/54/33
f 35/42/31 34/41/34 32/53/32
f 34/41/35 30/55/35 32/53/35
f 32/39/36 29/56/36 42/57/36
f 32/39/37 31/38/37 29/56/37
f 31/38/38 27/34/38 29/56/38
f 29/36/39 41/58/39 42/59/39
f 29/36/40 28/35/40 41/58/40
f 28/35/41 39/46/41 41/58/41
f 26/33/42 40/47/42 39/46/42
f 26/33/43 21/28/43 40/47/43
f 21/28/44 36/43/44 40/47/44
f 25/32/45 37/44/45 36/43/45
f 25/32/46 18/25/46 37/44/46
f 18/25/47 33/40/47 37/44/47
f 24/31/48 34/41/48 33/40/48
f 24/31/49 15/22/49 34/41/49
f 15/22/50 30/55/50 34/41/50
f 23/30/51 31/38/51 30/37/51
f 23/30/52 12/19/52 31/38/52
f 12/19/53 27/34/53 31/38/53
f 22/29/54 28/35/54 27/34/54
f 22/29/55 9/16/55 28/35/55
f 9/16/56 39/46/56 28/35/56
f 21/28/57 25/32/57 36/43/57
f 21/28/58 20/27/58 25/32/58
f 20/27/59 16/23/59 25/32/59
f 18/25/60 24/31/60 33/40/60
f 18/25/61 17/24/61 24/31/61
f 17/24/62 13/20/62 24/31/62
f 15/22/63 23/60/63 30/55/63
f 15/22/64 14/21/64 23/60/64
f 14/21/65 10/61/65 23/60/65
f 12/19/66 22/29/66 27/34/66
f 12/19/67 11/18/67 22/29/67
f 11/18/68 4/4/68 22/29/68
f 9/16/69 26/33/69 39/46/69
f 9/16/70 5/6/70 26/33/70
f 5/6/71 19/26/71 26/33/71
f 8/15/72 20/27/72 19/26/72
f 8/15/73 7/14/73 20/27/73
f 7/14/74 16/23/74 20/27/74
f 7/12/75 17/24/75 16/23/75
f 7/12/76 6/11/76 17/24/76
f 6/11/77 13/20/77 17/24/77
f 6/9/78 14/21/78 13/20/78
f 6/9/79 3/8/79 14/21/79
f 3/8/80 10/61/80 14/21/80
f 5/6/81 8/62/81 19/26/81
f 5/6/82 2/5/82 8/62/82
f 2/5/83 1/63/83 8/62/83
f 3/3/84 11/18/84 10/17/84
f 3/3/85 2/2/85 11/18/85
f 2/2/86 4/4/86 11/18/86
o Icosphere.002
v -173.628662 21.741825 115.815926
v -170.802612 21.865641 113.437706
v -170.493546 21.865641 117.768753
v -169.915344 22.256914 112.522446
v -172.193054 22.135466 110.021011
v -174.517136 21.865643 119.401085
v -177.312881 21.865641 116.078796
v -175.017151 21.865641 112.393265
v -170.962387 22.592831 110.989487
v -169.467728 22.250521 118.560234
v -167.667465 22.135012 115.390533
v -168.783600 22.544643 117.066238
v -175.140228 22.200111 121.915367
v -171.403809 22.137857 121.315956
v -173.154922 22.568655 122.663277
v -179.896667 22.200108 116.263153
v -178.201355 22.135014 119.663979
v -180.139008 22.570875 118.457047
v -175.990921 22.200108 109.992905
v -178.701401 22.135014 112.656113
v -178.152328 22.570875 110.440369
v -169.071960 22.571442 113.633652
v -170.266922 22.548704 120.208847
v -177.343201 22.570875 121.779335
v -180.448059 22.570875 114.125954
v -174.128693 22.570875 108.808067
v -169.492844 22.838501 115.106422
v -170.363419 22.928608 112.505920
v -171.460205 23.095760 115.450912
v -171.973297 22.852089 120.499756
v -170.397827 22.870388 118.097633
v -173.085831 23.051432 118.095245
v -178.436676 22.941641 119.862030
v -175.012634 22.971012 121.144592
v -176.063843 23.113773 117.534050
v -178.962494 22.941643 112.493553
v -179.589874 23.006737 116.241325
v -176.283218 23.088676 114.052628
v -172.745331 22.874180 110.793594
v -175.875320 23.006735 110.277916
v -172.959579 23.206715 112.434082
v -174.022766 23.162636 115.434814
vt 0.181819 0.000000
vt 0.227273 0.078731
vt 0.136365 0.078731
vt 0.272728 0.157461
vt 0.318182 0.078731
vt 0.363637 0.157461
vt 0.909091 0.000000
vt 0.954545 0.078731
vt 0.863636 0.078731
vt 0.727273 0.000000
vt 0.772727 0.078731
vt 0.681818 0.078731
vt 0.545455 0.000000
vt 0.590909 0.078731
vt 0.500000 0.078731
vt 0.318182 0.236191
vt 0.090910 0.157461
vt 0.181819 0.157461
vt 0.136365 0.236191
vt 0.818182 0.157461
vt 0.909091 0.157461
vt 0.863636 0.236191
vt 0.636364 0.157461
vt 0.727273 0.157461
vt 0.681818 0.236191
vt 0.454546 0.157461
vt 0.545455 0.157461
vt 0.500000 0.236191
vt 0.227273 0.236191
vt 0.045455 0.236191
vt 0.772727 0.236191
vt 0.590909 0.236191
vt 0.409092 0.236191
vt 0.181819 0.314921
vt 0.272728 0.314921
vt 0.227273 0.393651
vt 0.000000 0.314921
vt 0.090910 0.314921
vt 0.045455 0.393651
vt 0.727273 0.314921
vt 0.818182 0.314921
vt 0.772727 0.393651
vt 0.545455 0.314921
vt 0.636364 0.314921
vt 0.590909 0.393651
vt 0.363637 0.314921
vt 0.454546 0.314921
vt 0.409092 0.393651
vt 0.500000 0.393651
vt 0.454546 0.472382
vt 0.681818 0.393651
vt 0.636364 0.472382
vt 0.863636 0.393651
vt 0.818182 0.472382
vt 0.909091 0.314921
vt 0.136365 0.393651
vt 0.090910 0.472382
vt 0.318182 0.393651
vt 0.272728 0.472382
vt 0.954545 0.236191
vt 1.000000 0.157461
vt 0.409092 0.078731
vt 0.363637 0.000000
vn 0.0413 -0.9991 -0.0029
vn 0.2417 -0.9547 -0.1738
vn 0.0156 -0.9991 0.0384
vn -0.0317 -0.9991 0.0267
vn -0.0351 -0.9991 -0.0219
vn 0.6352 -0.5400 -0.5522
vn 0.8096 0.3818 0.4459
vn 0.0409 -0.9350 0.3522
vn -0.2928 -0.9476 0.1278
vn -0.2120 -0.9476 -0.2389
vn 0.8069 -0.1220 -0.5779
vn 0.9025 0.0642 0.4259
vn -0.1561 -0.6566 0.7379
vn -0.6800 -0.7316 0.0485
vn -0.2563 -0.7316 -0.6317
vn 0.1282 0.9917 -0.0085
vn 0.0671 0.9964 0.0516
vn -0.0262 0.9985 0.0471
vn -0.0402 0.9989 -0.0250
vn -0.0408 0.9989 -0.0242
vn -0.0402 0.9989 -0.0251
vn 0.0726 0.9793 -0.1890
vn -0.0343 0.9994 0.0025
vn -0.0486 0.9985 -0.0269
vn -0.0397 0.9989 -0.0260
vn -0.0311 0.9995 -0.0053
vn -0.0294 0.9996 -0.0054
vn -0.0284 0.9996 -0.0054
vn -0.0418 0.9986 0.0313
vn 0.0129 0.9992 0.0389
vn 0.0131 0.9992 0.0391
vn 0.0140 0.9992 0.0368
vn 0.0143 0.9993 0.0354
vn 0.0515 0.9969 0.0588
vn 0.0259 0.9991 0.0327
vn 0.0670 0.9961 0.0579
vn 0.1348 0.9904 0.0302
vn 0.0259 0.9994 0.0239
vn 0.1070 0.9941 -0.0166
vn 0.1097 0.9768 -0.1837
vn 0.0745 0.9767 -0.2011
vn -0.1976 0.8507 -0.4871
vn -0.1992 0.9476 -0.2497
vn -0.3120 0.9476 -0.0687
vn -0.5243 0.8507 0.0374
vn -0.2991 0.9476 0.1123
vn -0.0994 0.9649 0.2433
vn -0.0702 0.9397 0.3348
vn 0.0744 0.9827 0.1694
vn 0.1958 0.9712 0.1358
vn 0.2743 0.9531 0.1282
vn 0.2345 0.9702 0.0606
vn 0.3277 0.9416 -0.0771
vn 0.5393 0.7518 -0.3795
vn 0.1796 0.9431 -0.2798
vn -0.5787 0.7316 -0.3604
vn -0.4462 -0.8507 -0.2779
vn -0.3079 -0.9476 -0.0849
vn -0.5216 0.7316 0.4390
vn -0.4022 -0.8507 0.3384
vn -0.1760 -0.9476 0.2666
vn 0.2093 0.9483 0.2385
vn 0.6283 0.2481 0.7373
vn 0.6450 -0.6335 0.4273
vn 0.4552 0.8899 -0.0313
vn 0.3187 0.9477 -0.0194
vn 0.7869 0.0599 -0.6142
vn 0.1789 0.9463 -0.2692
vn 0.5529 0.2162 -0.8047
vn -0.0138 -0.9479 -0.3183
vn -0.0800 -0.9912 -0.1057
vn -0.0762 -0.9960 -0.0475
vn -0.1301 -0.9912 -0.0252
vn -0.1252 -0.9912 0.0434
vn -0.0687 -0.9960 0.0578
vn -0.0642 -0.9912 0.1159
vn 0.0048 -0.9911 0.1330
vn 0.0346 -0.9958 0.0853
vn 0.2526 -0.9576 0.1383
vn -0.0159 -0.9912 -0.1317
vn 0.0217 -0.9959 -0.0875
vn 0.0100 -0.9991 -0.0402
vn 0.2313 -0.9586 0.1663
vn 0.0896 -0.9960 -0.0064
vn 0.2099 -0.9559 -0.2052
usemtl Material.007
s 1
f 43/64/87 44/65/87 45/66/87
f 46/67/88 44/68/88 47/69/88
f 43/70/89 45/71/89 48/72/89
f 43/73/90 48/74/90 49/75/90
f 43/76/91 49/77/91 50/78/91
f 46/67/92 47/69/92 51/79/92
f 52/80/93 53/81/93 54/82/93
f 55/83/94 56/84/94 57/85/94
f 58/86/95 59/87/95 60/88/95
f 61/89/96 62/90/96 63/91/96
f 46/67/97 51/79/97 64/92/97
f 52/80/98 54/82/98 65/93/98
f 55/83/99 57/85/99 66/94/99
f 58/86/100 60/88/100 67/95/100
f 61/89/101 63/91/101 68/96/101
f 69/97/102 70/98/102 71/99/102
f 72/100/103 73/101/103 74/102/103
f 75/103/104 76/104/104 77/105/104
f 78/106/105 79/107/106 80/108/107
f 81/109/108 82/110/108 83/111/108
f 83/111/109 80/112/109 84/113/109
f 83/111/110 82/110/110 80/112/110
f 82/110/111 78/106/105 80/112/107
f 80/108/112 77/114/112 84/115/113
f 80/108/112 79/107/114 77/114/112
f 79/107/115 75/103/115 77/114/115
f 77/105/116 74/116/117 84/117/118
f 77/105/116 76/104/119 74/116/117
f 76/104/120 72/118/120 74/116/120
f 74/102/121 71/119/121 84/120/121
f 74/102/122 73/101/122 71/119/122
f 73/101/123 69/97/123 71/119/123
f 71/99/124 83/121/124 84/122/124
f 71/99/125 70/98/125 83/121/125
f 70/98/126 81/109/126 83/121/126
f 68/96/127 82/110/127 81/109/127
f 68/96/128 63/91/128 82/110/128
f 63/91/129 78/106/129 82/110/129
f 67/95/130 79/107/130 78/106/130
f 67/95/131 60/88/131 79/107/131
f 60/88/132 75/103/132 79/107/132
f 66/94/133 76/104/133 75/103/133
f 66/94/134 57/85/134 76/104/134
f 57/85/135 72/118/135 76/104/135
f 65/93/136 73/101/136 72/100/136
f 65/93/137 54/82/137 73/101/137
f 54/82/138 69/97/138 73/101/138
f 64/92/139 70/98/139 69/97/139
f 64/92/140 51/79/140 70/98/140
f 51/79/141 81/109/141 70/98/141
f 63/91/142 67/95/142 78/106/142
f 63/91/143 62/90/143 67/95/143
f 62/90/144 58/86/144 67/95/144
f 60/88/145 66/94/145 75/103/145
f 60/88/146 59/87/146 66/94/146
f 59/87/147 55/83/147 66/94/147
f 57/85/148 65/123/148 72/118/148
f 57/85/149 56/84/149 65/123/149
f 56/84/150 52/124/150 65/123/150
f 54/82/151 64/92/151 69/97/151
f 54/82/152 53/81/152 64/92/152
f 53/81/153 46/67/153 64/92/153
f 51/79/154 68/96/154 81/109/154
f 51/79/155 47/69/155 68/96/155
f 47/69/156 61/89/156 68/96/156
f 50/78/157 62/90/157 61/89/157
f 50/78/158 49/77/158 62/90/158
f 49/77/159 58/86/159 62/90/159
f 49/75/160 59/87/160 58/86/160
f 49/75/161 48/74/161 59/87/161
f 48/74/162 55/83/162 59/87/162
f 48/72/163 56/84/163 55/83/163
f 48/72/164 45/71/164 56/84/164
f 45/71/165 52/124/165 56/84/165
f 47/69/166 50/125/166 61/89/166
f 47/69/167 44/68/167 50/125/167
f 44/68/168 43/126/168 50/125/168
f 45/66/169 53/81/169 52/80/169
f 45/66/170 44/65/170 53/81/170
f 44/65/171 46/67/171 53/81/171
