# Blender v2.93.4 OBJ File: 'SlimeEnvironment.blend'
# www.blender.org
mtllib LongRock.mtl
o Icosphere.003
v -76.453323 18.050524 128.324524
v -78.647285 18.515537 120.340752
v -71.369690 18.515535 128.594650
v -79.612160 19.985048 117.498978
v -85.078270 19.528923 115.150414
v -71.117485 18.515545 136.475327
v -78.239304 18.515537 133.091766
v -82.892891 18.515537 123.120094
v -82.752121 21.246647 115.657845
v -69.456589 19.961037 128.986206
v -73.563637 19.527216 120.610809
v -71.491287 21.065678 125.228004
v -67.375435 19.771708 142.191513
v -66.109108 19.537903 136.695099
v -64.956467 21.155855 141.391022
v -79.491837 19.771698 136.435104
v -72.903427 19.527222 141.242630
v -76.045334 21.164188 141.075714
v -87.409065 19.771696 119.470154
v -84.678925 19.527220 127.887329
v -87.976677 21.164188 122.849915
v -77.285286 21.166321 118.736351
v -67.237946 21.080927 133.184372
v -68.923477 21.164188 144.459198
v -83.322990 21.164188 132.821686
v -88.228806 21.164188 114.969215
v -75.126968 22.169319 122.149086
v -79.908783 22.507730 117.982376
v -75.746460 23.135511 125.100555
v -67.788162 22.220348 135.728638
v -70.773598 22.289074 129.138153
v -72.394592 22.969021 132.230316
v -72.720703 22.556679 141.907455
v -68.560745 22.666988 140.512238
v -75.105057 23.203159 134.545731
v -85.102173 22.556681 127.864983
v -79.343010 22.801157 136.038254
v -80.937508 23.108902 127.877518
v -84.145485 22.303316 117.322571
v -86.872841 22.801153 119.903564
v -81.588234 23.552217 120.830666
v -77.314445 23.386673 128.020950
vt 0.181819 0.000000
vt 0.227273 0.078731
vt 0.136365 0.078731
vt 0.272728 0.157461
vt 0.318182 0.078731
vt 0.363637 0.157461
vt 0.909091 0.000000
vt 0.954545 0.078731
vt 0.863636 0.078731
vt 0.727273 0.000000
vt 0.772727 0.078731
vt 0.681818 0.078731
vt 0.545455 0.000000
vt 0.590909 0.078731
vt 0.500000 0.078731
vt 0.318182 0.236191
vt 0.090910 0.157461
vt 0.181819 0.157461
vt 0.136365 0.236191
vt 0.818182 0.157461
vt 0.909091 0.157461
vt 0.863636 0.236191
vt 0.636364 0.157461
vt 0.727273 0.157461
vt 0.681818 0.236191
vt 0.454546 0.157461
vt 0.545455 0.157461
vt 0.500000 0.236191
vt 0.227273 0.236191
vt 0.045455 0.236191
vt 0.772727 0.236191
vt 0.590909 0.236191
vt 0.409092 0.236191
vt 0.181819 0.314921
vt 0.272728 0.314921
vt 0.227273 0.393651
vt 0.000000 0.314921
vt 0.090910 0.314921
vt 0.045455 0.393651
vt 0.727273 0.314921
vt 0.818182 0.314921
vt 0.772727 0.393651
vt 0.545455 0.314921
vt 0.636364 0.314921
vt 0.590909 0.393651
vt 0.363637 0.314921
vt 0.454546 0.314921
vt 0.409092 0.393651
vt 0.500000 0.393651
vt 0.454546 0.472382
vt 0.681818 0.393651
vt 0.636364 0.472382
vt 0.863636 0.393651
vt 0.818182 0.472382
vt 0.909091 0.314921
vt 0.136365 0.393651
vt 0.090910 0.472382
vt 0.318182 0.393651
vt 0.272728 0.472382
vt 0.954545 0.236191
vt 1.000000 0.157461
vt 0.409092 0.078731
vt 0.363637 0.000000
vn 0.0952 -0.9919 -0.0839
vn 0.2887 -0.8069 -0.5153
vn 0.0912 -0.9958 -0.0029
vn -0.0392 -0.9958 0.0825
vn -0.1150 -0.9919 0.0537
vn 0.3985 -0.2818 -0.8728
vn 0.8874 0.1310 -0.4420
vn 0.5292 -0.8338 0.1574
vn -0.4139 -0.7404 0.5296
vn -0.6550 -0.7311 0.1912
vn 0.4894 -0.0522 -0.8705
vn 0.8817 0.0203 -0.4714
vn 0.5216 -0.5207 0.6758
vn -0.7085 -0.3283 0.6247
vn -0.8993 -0.4364 0.0288
vn 0.2794 0.9283 -0.2453
vn 0.2284 0.9691 -0.0934
vn 0.0026 0.9962 0.0866
vn -0.1314 0.9895 0.0608
vn -0.1314 0.9893 0.0630
vn -0.1314 0.9894 0.0618
vn -0.0874 0.9569 -0.2769
vn -0.0790 0.9944 0.0699
vn -0.1534 0.9852 0.0761
vn -0.1314 0.9895 0.0596
vn -0.0784 0.9954 0.0557
vn -0.0782 0.9954 0.0545
vn -0.0785 0.9954 0.0546
vn -0.0760 0.9957 0.0524
vn -0.0570 0.9928 0.1056
vn 0.0853 0.9964 0.0013
vn 0.0866 0.9962 0.0009
vn 0.0853 0.9964 -0.0009
vn 0.0839 0.9965 -0.0025
vn 0.2032 0.9774 -0.0584
vn 0.1079 0.9938 -0.0275
vn 0.2367 0.9675 -0.0887
vn 0.3399 0.9125 -0.2274
vn 0.0959 0.9948 -0.0341
vn 0.2253 0.9501 -0.2156
vn 0.0076 0.9403 -0.3403
vn -0.0993 0.9523 -0.2886
vn -0.8067 0.5904 0.0258
vn -0.6509 0.7404 0.1675
vn -0.6100 0.6784 0.4095
vn -0.6644 0.4642 0.5858
vn -0.4372 0.7311 0.5238
vn 0.0968 0.9272 0.3619
vn 0.2833 0.8873 0.3639
vn 0.3913 0.9200 -0.0227
vn 0.5485 0.8010 -0.2401
vn 0.6247 0.7052 -0.3353
vn 0.5251 0.7800 -0.3404
vn 0.5025 0.6902 -0.5207
vn 0.4468 0.4343 -0.7822
vn 0.0384 0.8579 -0.5124
vn -0.8560 0.3283 0.3995
vn -0.8026 -0.4642 0.3746
vn -0.6193 -0.6784 0.3952
vn -0.3861 0.4364 0.8127
vn -0.3463 -0.5904 0.7290
vn -0.0474 -0.8653 0.4990
vn 0.6520 0.7346 -0.1880
vn 0.9591 0.0931 -0.2675
vn 0.8809 -0.2581 -0.3967
vn 0.6350 0.5338 -0.5585
vn 0.5439 0.6920 -0.4747
vn 0.4589 0.0263 -0.8881
vn 0.0505 0.8618 -0.5048
vn 0.1219 0.1258 -0.9845
vn -0.4436 -0.8758 -0.1902
vn -0.3253 -0.9424 0.0781
vn -0.2430 -0.9634 0.1134
vn -0.3250 -0.9189 0.2235
vn -0.2289 -0.9364 0.2661
vn -0.0839 -0.9807 0.1767
vn 0.0072 -0.9776 0.2102
vn 0.1956 -0.9769 0.0866
vn 0.2003 -0.9797 -0.0064
vn 0.6130 -0.7284 -0.3062
vn -0.2194 -0.9736 -0.0636
vn -0.0700 -0.9918 -0.1069
vn -0.0323 -0.9983 -0.0493
vn 0.6153 -0.7430 -0.2632
vn 0.2011 -0.9634 -0.1773
vn 0.1944 -0.8428 -0.5018
usemtl Material.007
s 1
f 1/1/1 2/2/1 3/3/1
f 4/4/2 2/5/2 5/6/2
f 1/7/3 3/8/3 6/9/3
f 1/10/4 6/11/4 7/12/4
f 1/13/5 7/14/5 8/15/5
f 4/4/6 5/6/6 9/16/6
f 10/17/7 11/18/7 12/19/7
f 13/20/8 14/21/8 15/22/8
f 16/23/9 17/24/9 18/25/9
f 19/26/10 20/27/10 21/28/10
f 4/4/11 9/16/11 22/29/11
f 10/17/12 12/19/12 23/30/12
f 13/20/13 15/22/13 24/31/13
f 16/23/14 18/25/14 25/32/14
f 19/26/15 21/28/15 26/33/15
f 27/34/16 28/35/16 29/36/16
f 30/37/17 31/38/17 32/39/17
f 33/40/18 34/41/18 35/42/18
f 36/43/19 37/44/20 38/45/21
f 39/46/22 40/47/22 41/48/22
f 41/48/23 38/49/23 42/50/23
f 41/48/24 40/47/24 38/49/24
f 40/47/25 36/43/19 38/49/21
f 38/45/26 35/51/27 42/52/28
f 38/45/26 37/44/29 35/51/27
f 37/44/30 33/40/30 35/51/30
f 35/42/31 32/53/32 42/54/33
f 35/42/31 34/41/34 32/53/32
f 34/41/35 30/55/35 32/53/35
f 32/39/36 29/56/36 42/57/36
f 32/39/37 31/38/37 29/56/37
f 31/38/38 27/34/38 29/56/38
f 29/36/39 41/58/39 42/59/39
f 29/36/40 28/35/40 41/58/40
f 28/35/41 39/46/41 41/58/41
f 26/33/42 40/47/42 39/46/42
f 26/33/43 21/28/43 40/47/43
f 21/28/44 36/43/44 40/47/44
f 25/32/45 37/44/45 36/43/45
f 25/32/46 18/25/46 37/44/46
f 18/25/47 33/40/47 37/44/47
f 24/31/48 34/41/48 33/40/48
f 24/31/49 15/22/49 34/41/49
f 15/22/50 30/55/50 34/41/50
f 23/30/51 31/38/51 30/37/51
f 23/30/52 12/19/52 31/38/52
f 12/19/53 27/34/53 31/38/53
f 22/29/54 28/35/54 27/34/54
f 22/29/55 9/16/55 28/35/55
f 9/16/56 39/46/56 28/35/56
f 21/28/57 25/32/57 36/43/57
f 21/28/58 20/27/58 25/32/58
f 20/27/59 16/23/59 25/32/59
f 18/25/60 24/31/60 33/40/60
f 18/25/61 17/24/61 24/31/61
f 17/24/62 13/20/62 24/31/62
f 15/22/63 23/60/63 30/55/63
f 15/22/64 14/21/64 23/60/64
f 14/21/65 10/61/65 23/60/65
f 12/19/66 22/29/66 27/34/66
f 12/19/67 11/18/67 22/29/67
f 11/18/68 4/4/68 22/29/68
f 9/16/69 26/33/69 39/46/69
f 9/16/70 5/6/70 26/33/70
f 5/6/71 19/26/71 26/33/71
f 8/15/72 20/27/72 19/26/72
f 8/15/73 7/14/73 20/27/73
f 7/14/74 16/23/74 20/27/74
f 7/12/75 17/24/75 16/23/75
f 7/12/76 6/11/76 17/24/76
f 6/11/77 13/20/77 17/24/77
f 6/9/78 14/21/78 13/20/78
f 6/9/79 3/8/79 14/21/79
f 3/8/80 10/61/80 14/21/80
f 5/6/81 8/62/81 19/26/81
f 5/6/82 2/5/82 8/62/82
f 2/5/83 1/63/83 8/62/83
f 3/3/84 11/18/84 10/17/84
f 3/3/85 2/2/85 11/18/85
f 2/2/86 4/4/86 11/18/86
